<svg version="1.1" id="Layer_1" xmlns="http://www.w3.org/2000/svg" xmlns:xlink="http://www.w3.org/1999/xlink" x="0px" y="0px"
	 width="100%" viewBox="0 0 180 180" enable-background="new 0 0 180 180" xml:space="preserve">
<path fill="#34A09C" opacity="1.000000" stroke="none" 
	d="
M115.000000,181.000000 
	C76.666672,181.000000 38.833340,181.000000 1.000005,181.000000 
	C1.000003,121.000008 1.000003,61.000011 1.000002,1.000013 
	C60.999989,1.000009 120.999977,1.000009 180.999969,1.000004 
	C180.999985,60.999985 180.999985,120.999969 181.000000,180.999969 
	C159.166672,181.000000 137.333328,181.000000 115.000000,181.000000 
M62.171860,44.775581 
	C57.977840,44.186707 59.170113,47.361748 59.164993,49.354908 
	C59.101925,73.905479 59.123676,98.456261 59.123531,123.006989 
	C59.123516,125.807800 59.123531,128.608612 59.123531,132.115448 
	C60.842224,131.640732 62.010384,131.318069 64.027870,130.967224 
	C64.876709,130.927170 65.725555,130.887115 66.996559,131.415222 
	C69.614334,132.668900 70.709061,131.674469 70.698212,128.948074 
	C70.681656,124.789635 70.702690,120.631058 70.702850,116.472542 
	C70.703735,94.016449 70.709534,71.560356 70.694450,49.104279 
	C70.692665,46.454548 71.278099,43.074902 65.732567,45.116177 
	C64.834084,45.073650 63.935596,45.031120 62.171860,44.775581 
M74.230911,86.499908 
	C74.231689,100.295876 74.183670,114.092300 74.311081,127.887100 
	C74.323402,129.220505 75.423065,130.543869 76.017982,131.871887 
	C76.760300,130.534073 78.143738,129.199341 78.150208,127.857971 
	C78.277611,101.430145 78.270660,75.001442 78.171005,48.573380 
	C78.165955,47.236542 77.080147,45.903778 76.497551,44.569115 
	C75.742500,45.912678 74.350555,47.247440 74.331841,48.601185 
	C74.161812,60.898872 74.231430,73.199867 74.230911,86.499908 
M94.243927,115.318520 
	C96.673141,120.054604 98.966866,124.868713 101.619949,129.475876 
	C102.349030,130.741943 104.152557,131.389252 105.463051,132.320496 
	C105.840286,131.905914 106.217514,131.491333 106.594749,131.076752 
	C102.307953,122.658981 98.006271,114.248756 93.739510,105.820847 
	C90.812675,100.039635 85.629494,94.217133 85.671371,88.443672 
	C85.714760,82.462006 90.793610,76.491783 93.761658,70.562424 
	C97.981277,62.132767 102.284599,53.745007 106.552147,45.339344 
	C106.098701,44.903900 105.645264,44.468452 105.191818,44.033005 
	C103.793533,45.298382 101.903442,46.303699 101.074997,47.870399 
	C94.622009,60.073940 88.256187,72.328171 82.187462,84.725357 
	C81.274361,86.590645 81.286629,89.632317 82.167915,91.526268 
	C85.813904,99.361862 89.958443,106.965477 94.243927,115.318520 
M106.932930,98.454727 
	C106.333374,97.267578 105.879227,95.975136 105.109062,94.911522 
	C101.793358,90.332497 102.297607,86.162468 105.047386,81.242432 
	C111.044479,70.512161 116.381668,59.412628 121.959732,48.449341 
	C122.507835,47.372089 122.856560,46.193401 123.297836,45.061802 
	C122.891388,44.695816 122.484947,44.329834 122.078499,43.963848 
	C120.804932,45.047150 119.050346,45.879158 118.332703,47.252876 
	C111.636787,60.070126 105.067749,72.954956 98.631447,85.904442 
	C98.013504,87.147713 98.003922,89.229668 98.621849,90.468346 
	C105.151306,103.556862 111.811577,116.581551 118.615608,129.529343 
	C119.268486,130.771744 121.133545,131.377167 122.435875,132.278290 
	C122.815254,131.851425 123.194626,131.424561 123.573997,130.997711 
	C118.132774,120.374985 112.691551,109.752266 106.932930,98.454727 
M110.938622,53.547844 
	C112.310028,50.773624 113.681442,47.999409 115.052849,45.225189 
	C114.626495,44.827705 114.200142,44.430222 113.773788,44.032738 
	C112.404602,45.181152 110.516960,46.057037 109.747551,47.520733 
	C103.094070,60.178028 96.593727,72.917084 90.204712,85.710159 
	C89.571564,86.977943 89.398193,89.060867 90.002106,90.271095 
	C96.609367,103.511673 103.363388,116.680367 110.250740,129.777496 
	C110.869408,130.953964 112.697144,131.494614 113.963371,132.330536 
	C114.326485,131.952469 114.689606,131.574417 115.052719,131.196350 
	C114.292755,129.602890 113.568314,127.991333 112.767136,126.418861 
	C106.954437,115.010353 101.230225,103.554604 95.233414,92.243484 
	C93.638191,89.234604 93.756371,86.849785 95.307541,83.927704 
	C100.530724,74.088295 105.524727,64.127235 110.938622,53.547844 
M130.594727,48.284801 
	C131.019669,47.251965 131.444611,46.219131 131.869553,45.186295 
	C131.521301,44.811638 131.173065,44.436985 130.824829,44.062328 
	C129.442108,45.169765 127.515556,45.992004 126.761833,47.429295 
	C120.119514,60.095570 113.639847,72.848343 107.261856,85.650154 
	C106.628441,86.921555 106.391273,88.988113 106.984520,90.181290 
	C113.574043,103.434547 120.307556,116.617813 127.195045,129.718582 
	C127.814445,130.896774 129.778519,131.368027 131.118118,132.167587 
	C131.408829,131.742477 131.699554,131.317368 131.990280,130.892258 
	C125.356239,117.871994 118.596733,104.912560 112.222389,91.766380 
	C111.257820,89.777100 111.259277,86.520233 112.220009,84.527664 
	C117.997276,72.545631 124.184944,60.761471 130.594727,48.284801 
M55.416130,49.560146 
	C55.410034,48.893616 55.615952,48.123638 55.352104,47.582867 
	C54.858055,46.570271 54.091812,45.690475 53.438801,44.755440 
	C52.848408,45.749599 52.110008,46.689476 51.718616,47.756618 
	C51.448761,48.492386 51.655590,49.404320 51.655567,50.237522 
	C51.654827,75.567459 51.654140,100.897400 51.657070,126.227341 
	C51.657204,127.393425 51.490711,128.611786 51.776943,129.707840 
	C51.979305,130.482727 52.815990,131.091965 53.369507,131.775146 
	C54.035858,131.029587 55.049793,130.379059 55.285767,129.515854 
	C55.625896,128.271622 55.414906,126.872917 55.415054,125.540131 
	C55.417847,100.543480 55.417072,75.546829 55.416130,49.560146 
z"/>
<path fill="#E7F4F3" opacity="1.000000" stroke="none" 
	d="
M66.630371,45.173161 
	C71.278099,43.074902 70.692665,46.454548 70.694450,49.104279 
	C70.709534,71.560356 70.703735,94.016449 70.702850,116.472542 
	C70.702690,120.631058 70.681656,124.789635 70.698212,128.948074 
	C70.709061,131.674469 69.614334,132.668900 66.847549,130.675842 
	C66.675827,101.682037 66.653099,73.427597 66.630371,45.173161 
z"/>
<path fill="#E6F3F3" opacity="1.000000" stroke="none" 
	d="
M74.230927,85.999908 
	C74.231430,73.199867 74.161812,60.898872 74.331841,48.601185 
	C74.350555,47.247440 75.742500,45.912678 76.497551,44.569115 
	C77.080147,45.903778 78.165955,47.236542 78.171005,48.573380 
	C78.270660,75.001442 78.277611,101.430145 78.150208,127.857971 
	C78.143738,129.199341 76.760300,130.534073 76.017975,131.871887 
	C75.423065,130.543869 74.323402,129.220505 74.311081,127.887100 
	C74.183670,114.092300 74.231689,100.295876 74.230927,85.999908 
z"/>
<path fill="#EBF6F5" opacity="1.000000" stroke="none" 
	d="
M94.081894,114.986404 
	C89.958443,106.965477 85.813904,99.361862 82.167915,91.526268 
	C81.286629,89.632317 81.274361,86.590645 82.187462,84.725357 
	C88.256187,72.328171 94.622009,60.073940 101.074997,47.870399 
	C101.903442,46.303699 103.793533,45.298382 105.191818,44.033005 
	C105.645264,44.468452 106.098701,44.903900 106.552147,45.339344 
	C102.284599,53.745007 97.981277,62.132767 93.761658,70.562424 
	C90.793610,76.491783 85.714760,82.462006 85.671371,88.443672 
	C85.629494,94.217133 90.812675,100.039635 93.739510,105.820847 
	C98.006271,114.248756 102.307953,122.658981 106.594749,131.076752 
	C106.217514,131.491333 105.840286,131.905914 105.463051,132.320496 
	C104.152557,131.389252 102.349030,130.741943 101.619949,129.475876 
	C98.966866,124.868713 96.673141,120.054604 94.081894,114.986404 
z"/>
<path fill="#ECF6F6" opacity="1.000000" stroke="none" 
	d="
M107.091629,98.792130 
	C112.691551,109.752266 118.132774,120.374985 123.573997,130.997711 
	C123.194626,131.424561 122.815254,131.851425 122.435875,132.278290 
	C121.133545,131.377167 119.268486,130.771744 118.615608,129.529343 
	C111.811577,116.581551 105.151306,103.556862 98.621849,90.468346 
	C98.003922,89.229668 98.013504,87.147713 98.631447,85.904442 
	C105.067749,72.954956 111.636787,60.070126 118.332703,47.252876 
	C119.050346,45.879158 120.804932,45.047150 122.078499,43.963848 
	C122.484947,44.329834 122.891388,44.695816 123.297836,45.061802 
	C122.856560,46.193401 122.507835,47.372089 121.959732,48.449341 
	C116.381668,59.412628 111.044479,70.512161 105.047386,81.242432 
	C102.297607,86.162468 101.793358,90.332497 105.109062,94.911522 
	C105.879227,95.975136 106.333374,97.267578 107.091629,98.792130 
z"/>
<path fill="#EBF6F5" opacity="1.000000" stroke="none" 
	d="
M110.772514,53.880276 
	C105.524727,64.127235 100.530724,74.088295 95.307541,83.927704 
	C93.756371,86.849785 93.638191,89.234604 95.233414,92.243484 
	C101.230225,103.554604 106.954437,115.010353 112.767136,126.418861 
	C113.568314,127.991333 114.292755,129.602890 115.052719,131.196350 
	C114.689606,131.574417 114.326485,131.952469 113.963371,132.330536 
	C112.697144,131.494614 110.869408,130.953964 110.250740,129.777496 
	C103.363388,116.680367 96.609367,103.511673 90.002106,90.271095 
	C89.398193,89.060867 89.571564,86.977943 90.204712,85.710159 
	C96.593727,72.917084 103.094070,60.178028 109.747551,47.520733 
	C110.516960,46.057037 112.404602,45.181152 113.773788,44.032738 
	C114.200142,44.430222 114.626495,44.827705 115.052849,45.225189 
	C113.681442,47.999409 112.310028,50.773624 110.772514,53.880276 
z"/>
<path fill="#EBF6F5" opacity="1.000000" stroke="none" 
	d="
M130.414948,48.597923 
	C124.184944,60.761471 117.997276,72.545631 112.220009,84.527664 
	C111.259277,86.520233 111.257820,89.777100 112.222389,91.766380 
	C118.596733,104.912560 125.356239,117.871994 131.990280,130.892258 
	C131.699554,131.317368 131.408829,131.742477 131.118118,132.167587 
	C129.778519,131.368027 127.814445,130.896774 127.195045,129.718582 
	C120.307556,116.617813 113.574043,103.434547 106.984520,90.181290 
	C106.391273,88.988113 106.628441,86.921555 107.261856,85.650154 
	C113.639847,72.848343 120.119514,60.095570 126.761833,47.429295 
	C127.515556,45.992004 129.442108,45.169765 130.824829,44.062328 
	C131.173065,44.436985 131.521301,44.811638 131.869553,45.186295 
	C131.444611,46.219131 131.019669,47.251965 130.414948,48.597923 
z"/>
<path fill="#FFFFFF" opacity="1.000000" stroke="none" 
	d="
M63.178543,130.995422 
	C62.010384,131.318069 60.842224,131.640732 59.123531,132.115448 
	C59.123531,128.608612 59.123516,125.807800 59.123531,123.006989 
	C59.123676,98.456261 59.101925,73.905479 59.164993,49.354908 
	C59.170113,47.361748 57.977840,44.186707 62.583443,45.351070 
	C63.056202,74.282845 63.117371,102.639137 63.178543,130.995422 
z"/>
<path fill="#FDFEFE" opacity="1.000000" stroke="none" 
	d="
M55.416588,50.055164 
	C55.417072,75.546829 55.417847,100.543480 55.415054,125.540131 
	C55.414906,126.872917 55.625896,128.271622 55.285767,129.515854 
	C55.049793,130.379059 54.035858,131.029587 53.369507,131.775146 
	C52.815990,131.091965 51.979305,130.482727 51.776943,129.707840 
	C51.490711,128.611786 51.657204,127.393425 51.657070,126.227341 
	C51.654140,100.897400 51.654827,75.567459 51.655567,50.237522 
	C51.655590,49.404320 51.448761,48.492386 51.718616,47.756618 
	C52.110008,46.689476 52.848408,45.749599 53.438797,44.755440 
	C54.091812,45.690475 54.858055,46.570271 55.352104,47.582867 
	C55.615952,48.123638 55.410034,48.893616 55.416588,50.055164 
z"/>
<path fill="#2F9E9A" opacity="1.000000" stroke="none" 
	d="
M63.603207,130.981323 
	C63.117371,102.639137 63.056202,74.282845 63.016071,45.457577 
	C63.935596,45.031120 64.834084,45.073650 66.181473,45.144669 
	C66.653099,73.427597 66.675827,101.682037 66.636475,130.391785 
	C65.725555,130.887115 64.876709,130.927170 63.603207,130.981323 
z"/>
</svg>