<svg width="511" height="512" viewBox="0 0 511 512" fill="none" xmlns="http://www.w3.org/2000/svg">
<rect width="511" height="512" rx="12" fill="#329F9B"/>
<path d="M232.969 328H226.219V172.75H232.969V328ZM219.469 328H212.719V172.75H219.469V328ZM205.969 328H199.219V172.75H205.969V328ZM192.469 328H185.719V172.75H192.469V328ZM282.281 250.375L321.938 172.75H329.438L289.781 250.375L329.438 328H321.938L282.281 250.375ZM267.188 250.375L306.844 172.75H314.344L274.688 250.375L314.344 328H306.844L267.188 250.375ZM252.094 250.375L291.75 172.75H299.25L259.594 250.375L299.25 328H291.75L252.094 250.375ZM236.906 250.375L276.656 172.75H284.156L244.406 250.375L284.156 328H276.656L236.906 250.375Z" fill="white"/>
</svg>
